<?xml version="1.0" encoding="UTF-8"?>
<!DOCTYPE svg PUBLIC "-//W3C//DTD SVG 1.1//EN" "http://www.w3.org/Graphics/SVG/1.1/DTD/svg11.dtd">
<!-- Creator: CorelDRAW -->
<svg xmlns="http://www.w3.org/2000/svg" xml:space="preserve" width="2.15561in" height="2.1835in" style="shape-rendering:geometricPrecision; text-rendering:geometricPrecision; image-rendering:optimizeQuality; fill-rule:evenodd; clip-rule:evenodd"
viewBox="0 0 0.432965 0.438565"
 xmlns:xlink="http://www.w3.org/1999/xlink">
 <defs>
  <style type="text/css">
   <![CDATA[
    .str1 {stroke:white;stroke-width:0.0107125;stroke-linecap:round;stroke-linejoin:round}
    .str0 {stroke:#222020;stroke-width:0.0107125;stroke-linecap:round;stroke-linejoin:round}
    .fil2 {fill:white}
    .fil0 {fill:#222020}
    .fil1 {fill:url(#id0)}
   ]]>
  </style>
  <linearGradient id="id0" gradientUnits="userSpaceOnUse" x1="0.0136178" y1="0.219283" x2="0.419347" y2="0.219283">
   <stop offset="0" style="stop-color:aqua"/>
   <stop offset="1" style="stop-color:#E6E7E8"/>
  </linearGradient>
 </defs>
 <g id="Layer_x0020_1">
  <metadata id="CorelCorpID_0Corel-Layer"/>
  <ellipse class="fil0" cx="0.216482" cy="0.219283" rx="0.216482" ry="0.219283"/>
  <path class="fil1" d="M0.216483 0.0164179c-0.112039,0 -0.202865,0.0908258 -0.202865,0.202865 0,0.112039 0.0908258,0.202865 0.202865,0.202865 0.112039,0 0.202865,-0.0908258 0.202865,-0.202865 0,-0.112039 -0.0908258,-0.202865 -0.202865,-0.202865z"/>
  <g id="_346742432">
   <polygon id="_346953680" class="fil0 str0" points="0.175546,0.142312 0.12483,0.171593 0.12483,0.288717 0.175546,0.317998 0.175546,0.259435 0.276979,0.317998 0.327695,0.288717 0.327695,0.171593 0.276979,0.142312 0.276979,0.200874 "/>
   <polygon id="_346953992" class="fil2 str1" points="0.161821,0.11854 0.111105,0.147821 0.111105,0.264945 0.161821,0.294226 0.161821,0.235663 0.263254,0.294226 0.31397,0.264945 0.31397,0.147821 0.263254,0.11854 0.263254,0.177102 "/>
  </g>
 </g>
</svg>
